<?xml version="1.0" standalone="no"?>
<!DOCTYPE svg PUBLIC "-//W3C//DTD SVG 20010904//EN"
 "http://www.w3.org/TR/2001/REC-SVG-20010904/DTD/svg10.dtd">
<svg version="1.0" xmlns="http://www.w3.org/2000/svg"
 width="1312.000000pt" height="736.000000pt" viewBox="0 0 1312.000000 736.000000"
 preserveAspectRatio="xMidYMid meet">

<g transform="translate(0.000000,736.000000) scale(0.100000,-0.100000)"
fill="#000000" stroke="none">
<path d="M3001 4883 c-31 -12 -81 -67 -92 -100 -15 -47 0 -131 22 -118 5 4 2
17 -7 30 -12 19 -14 31 -6 52 l10 28 10 -25 c7 -17 11 -19 11 -8 1 9 -6 24
-15 32 -14 15 -11 41 4 32 4 -2 16 2 27 10 10 8 14 14 9 14 -6 0 -16 -6 -23
-12 -11 -11 -13 -10 -9 2 3 8 14 20 25 25 12 6 27 16 35 22 7 7 36 13 63 16
l50 3 -50 1 c-27 1 -56 -1 -64 -4z"/>
<path d="M3126 4865 c3 -8 10 -13 14 -10 10 6 42 -30 33 -38 -10 -11 -23 -8
-20 4 1 6 -6 13 -15 14 -10 2 -18 -1 -18 -7 0 -6 7 -8 14 -5 10 4 13 1 9 -9
-3 -9 1 -14 12 -14 13 0 16 -8 13 -42 -2 -33 -7 -43 -20 -42 -19 2 -34 -29
-23 -46 4 -6 1 -18 -6 -26 -10 -12 -9 -13 6 -8 13 5 16 14 11 38 -6 27 -5 29
8 16 16 -17 10 -74 -7 -63 -6 3 -7 1 -3 -5 10 -17 -6 -15 -31 3 -16 11 -24 12
-29 4 -4 -8 -3 -9 4 -5 7 4 12 2 12 -3 0 -6 -7 -11 -15 -11 -8 0 -15 -4 -15
-10 0 -5 -9 -10 -20 -10 -18 0 -19 3 -9 23 12 21 11 21 -8 5 -23 -21 -40 -24
-24 -4 9 11 9 16 0 22 -8 4 -9 3 -5 -4 8 -13 -6 -16 -18 -4 -4 4 -13 7 -19 7
-7 1 -11 7 -9 14 1 7 -2 10 -10 5 -17 -11 48 -62 89 -70 23 -4 37 -1 48 10 9
9 24 16 33 15 13 0 11 -3 -5 -11 -22 -10 -23 -17 -23 -120 0 -102 -1 -108 -20
-108 -62 0 -130 -74 -138 -149 -10 -108 86 -188 193 -160 22 6 47 17 55 24 18
17 51 14 102 -9 35 -15 40 -15 92 5 31 11 58 25 61 30 4 5 -19 0 -51 -12 -51
-19 -61 -20 -98 -8 -22 7 -47 13 -54 12 -10 -1 -12 6 -7 25 12 44 11 135 -1
139 -8 2 -11 -16 -10 -56 l1 -59 -37 4 c-22 3 -39 0 -44 -7 -5 -8 -3 -9 5 -5
7 5 21 0 31 -9 11 -10 24 -14 32 -10 11 7 11 5 0 -6 -10 -11 -16 -11 -33 -1
-21 14 -40 8 -38 -11 4 -31 -2 -38 -22 -32 -15 5 -19 4 -15 -4 4 -6 0 -11 -9
-11 -9 0 -14 4 -10 9 3 5 1 12 -5 16 -5 3 -10 2 -10 -2 0 -5 -9 -9 -20 -10
-11 -1 -18 3 -14 8 9 16 -17 40 -37 34 -14 -5 -17 -2 -13 9 4 10 1 16 -8 16
-11 0 -13 9 -11 33 4 26 2 29 -7 17 -9 -12 -10 -9 -5 15 4 17 8 40 10 53 1 13
12 32 24 43 11 11 21 25 21 31 0 6 7 5 17 -3 15 -12 16 -12 10 4 -8 21 -1 22
19 3 12 -13 10 -17 -21 -32 -19 -9 -35 -20 -35 -25 0 -5 -5 -8 -11 -7 -6 2
-14 -3 -17 -11 -2 -8 0 -11 6 -7 6 3 13 2 17 -4 3 -5 -1 -10 -9 -10 -9 0 -16
-7 -16 -16 0 -8 4 -13 9 -9 5 3 12 -4 16 -15 8 -25 65 -29 65 -5 0 11 11 15
40 15 38 0 40 2 40 30 0 31 16 41 26 15 4 -8 16 -15 27 -15 19 0 17 4 -15 38
-37 39 -57 85 -32 75 8 -3 11 -10 7 -16 -3 -5 -1 -7 4 -4 6 4 27 -9 46 -28
l36 -36 92 2 c94 1 129 12 129 38 0 11 -3 10 -13 -3 -12 -16 -27 -18 -112 -17
-94 2 -100 3 -128 31 -16 16 -42 34 -58 40 -28 12 -28 13 -31 114 l-3 101 35
20 c54 32 80 78 80 143 0 44 -5 62 -25 88 -30 39 -68 65 -59 39z m70 -157 c4
-7 4 -10 -1 -6 -4 4 -14 3 -22 -3 -13 -11 -19 2 -6 14 10 11 21 8 29 -5z m-20
-50 c-18 -26 -22 -17 -5 14 6 11 13 17 16 15 3 -3 -2 -16 -11 -29z m-76 -298
c0 -5 -4 -10 -10 -10 -5 0 -10 5 -10 10 0 6 5 10 10 10 6 0 10 -4 10 -10z
m-30 -10 c0 -5 9 -10 20 -10 11 0 20 -4 20 -8 0 -4 -9 -8 -20 -8 -11 0 -20 4
-20 8 0 4 -7 8 -15 8 -8 0 -15 5 -15 10 0 6 7 10 15 10 8 0 15 -4 15 -10z
m-50 -96 c0 -8 -4 -12 -10 -9 -5 3 -10 10 -10 16 0 5 5 9 10 9 6 0 10 -7 10
-16z m197 -56 c-3 -7 -5 -2 -5 12 0 14 2 19 5 13 2 -7 2 -19 0 -25z m-62 -98
c0 -7 -6 -14 -13 -16 -7 -1 -8 0 -2 3 7 3 7 10 -2 21 -11 13 -11 14 2 10 8 -2
15 -11 15 -18z m-151 -5 c3 -8 1 -15 -3 -15 -5 0 -11 7 -15 15 -3 8 -1 15 3
15 5 0 11 -7 15 -15z"/>
<path d="M10059 4393 c0 -331 -1 -347 -17 -323 -94 138 -247 212 -437 214
-178 1 -307 -49 -431 -166 -130 -123 -194 -289 -194 -499 0 -209 60 -370 185
-495 118 -118 258 -174 435 -174 172 0 271 40 388 157 l72 73 0 -100 0 -100
105 0 105 0 0 880 0 880 -105 0 -105 0 -1 -347z m-347 -314 c115 -25 224 -102
282 -201 14 -24 35 -80 46 -123 48 -189 5 -374 -116 -491 -123 -120 -315 -154
-479 -84 -55 24 -138 99 -172 158 -111 189 -85 484 55 629 98 101 240 142 384
112z"/>
<path d="M10551 4717 c-52 -18 -94 -77 -94 -131 0 -81 59 -136 147 -136 43 0
53 4 86 38 50 50 59 94 31 156 -16 37 -29 51 -63 66 -50 23 -61 23 -107 7z"/>
<path d="M2936 4712 c-2 -4 2 -16 10 -27 8 -10 14 -14 14 -8 0 7 -5 15 -10 18
-6 4 -8 11 -5 16 4 5 4 9 1 9 -3 0 -7 -3 -10 -8z"/>
<path d="M1410 3835 l0 -855 544 0 543 0 7 46 c3 26 6 71 6 100 l0 54 -435 2
-435 3 -1 753 0 752 -115 0 -114 0 0 -855z"/>
<path d="M6950 4450 l0 -200 -130 0 -130 0 0 -90 0 -90 129 0 130 0 3 -437 c3
-387 6 -443 21 -482 28 -73 64 -111 136 -145 l66 -31 175 0 175 0 3 91 3 92
-143 4 c-88 2 -152 9 -165 16 -52 29 -53 40 -53 482 l0 410 180 0 180 0 0 90
0 90 -180 0 -180 0 0 200 0 200 -110 0 -110 0 0 -200z"/>
<path d="M11128 4453 l-3 -198 -132 -3 -133 -3 0 -89 0 -89 133 -3 132 -3 5
-445 c6 -497 4 -487 78 -563 63 -65 121 -80 320 -85 l172 -4 0 95 0 95 -139 4
c-123 3 -143 6 -168 24 -51 38 -53 62 -51 488 l3 391 178 3 177 2 0 90 0 90
-177 2 -178 3 -3 198 -2 197 -105 0 -105 0 -2 -197z"/>
<path d="M3510 4349 c0 -6 -6 -9 -14 -6 -8 3 -22 -1 -33 -8 -10 -8 -13 -15 -6
-15 6 0 14 4 17 9 3 5 20 7 38 5 24 -3 29 -1 18 6 -12 8 -10 10 10 10 14 0 36
-3 48 -7 18 -4 21 -8 10 -15 -9 -7 -8 -8 6 -4 13 5 17 2 12 -9 -7 -19 3 -47
15 -39 5 3 9 10 9 15 0 6 -4 7 -10 4 -5 -3 -10 -2 -10 4 0 31 31 13 58 -35 6
-11 12 -14 12 -7 0 20 -53 75 -87 89 -39 17 -93 18 -93 3z"/>
<path d="M4631 4279 c-29 -5 -80 -20 -113 -33 -197 -80 -320 -221 -373 -431
-65 -257 0 -532 164 -694 121 -119 258 -171 450 -171 125 0 196 16 300 66 135
66 256 219 277 352 l7 42 -109 0 -110 0 -28 -65 c-101 -231 -442 -274 -627
-79 -93 99 -124 201 -117 384 4 86 11 129 27 172 44 115 137 207 245 245 76
27 213 24 291 -7 79 -31 165 -116 191 -188 l19 -52 112 0 c62 0 113 1 113 3 0
1 -6 25 -14 52 -63 239 -279 399 -556 410 -52 2 -119 0 -149 -6z"/>
<path d="M5917 4280 c-225 -38 -378 -178 -394 -362 l-6 -59 108 3 109 3 11 51
c15 68 43 104 105 138 67 36 163 50 254 36 168 -26 262 -133 254 -288 l-3 -57
-245 -6 c-253 -6 -308 -13 -399 -49 -158 -62 -234 -169 -235 -330 -1 -256 167
-410 449 -410 161 0 266 41 373 146 l62 62 0 -89 0 -89 105 0 106 0 -3 493 -3
492 -32 66 c-41 83 -121 160 -208 200 -107 51 -277 71 -408 49z m441 -802 c-4
-116 -16 -150 -80 -222 -49 -57 -140 -102 -234 -117 -202 -33 -347 57 -348
214 -1 130 77 197 249 217 33 4 140 8 238 9 l179 1 -4 -102z"/>
<path d="M8165 4283 c-180 -24 -364 -151 -447 -309 -66 -126 -83 -200 -83
-359 1 -164 15 -228 78 -350 71 -138 214 -257 354 -294 133 -36 291 -32 417
10 113 38 238 136 299 236 22 34 67 148 67 168 0 3 -49 5 -109 5 l-108 0 -32
-64 c-36 -74 -82 -118 -161 -155 -49 -23 -67 -26 -170 -26 -102 1 -121 4 -172
27 -63 29 -139 94 -174 150 -29 46 -64 148 -64 188 0 27 3 30 33 31 17 1 246
5 507 8 l475 6 -1 100 c-1 124 -15 186 -66 295 -110 230 -377 368 -643 333z
m226 -213 c133 -41 239 -170 256 -309 l6 -51 -398 0 -398 0 7 40 c16 102 72
202 147 262 95 77 247 100 380 58z"/>
<path d="M3637 4266 c-4 -11 -1 -13 10 -9 11 4 14 2 9 -5 -4 -7 -2 -12 3 -12
13 0 13 3 5 24 -8 20 -20 21 -27 2z"/>
<path d="M3388 4231 c-2 -14 -1 -39 3 -56 6 -29 7 -29 8 8 0 21 5 46 10 56 7
13 6 18 -4 18 -7 0 -15 -12 -17 -26z"/>
<path d="M10480 3615 l0 -635 113 0 112 0 3 635 3 635 -115 0 -116 0 0 -635z"/>
<path d="M3687 4233 c-5 -7 -6 -17 -3 -22 11 -17 -13 -63 -29 -57 -8 3 -14 0
-12 -7 1 -7 -6 -11 -15 -11 -10 1 -15 -2 -12 -8 3 -5 0 -15 -6 -23 -10 -12
-10 -15 1 -15 9 0 10 -3 2 -11 -14 -14 -103 -21 -103 -8 0 6 -5 7 -10 4 -6 -4
-16 -3 -23 3 -16 12 -47 23 -47 16 0 -3 21 -14 46 -26 88 -38 189 4 215 91 12
41 9 94 -4 74z m-32 -113 c-16 -16 -31 -28 -33 -25 -6 5 45 55 55 55 4 0 -6
-13 -22 -30z"/>
<path d="M3014 4155 c15 -11 16 -15 5 -15 -8 0 -20 5 -27 12 -6 6 -15 9 -18 5
-4 -3 7 -14 24 -24 17 -10 33 -25 35 -33 2 -8 4 1 4 20 0 34 -11 50 -32 50 -5
-1 -1 -7 9 -15z"/>
<path d="M3410 4145 c-7 -9 -10 -18 -7 -21 3 -3 10 4 17 15 13 25 8 27 -10 6z"/>
<path d="M2745 4090 c-14 -5 -7 -7 23 -5 24 1 46 5 49 9 9 9 -49 6 -72 -4z"/>
<path d="M3791 4089 c-37 -8 -77 -34 -97 -64 -12 -18 -11 -20 11 -21 13 -1 31
7 41 17 16 17 15 18 -5 14 -15 -3 -21 0 -18 8 3 7 10 11 16 10 6 -2 11 1 11 6
0 12 56 25 70 16 6 -4 0 -15 -15 -27 -32 -25 -26 -36 8 -13 17 11 27 13 32 6
3 -6 11 -11 16 -11 6 0 3 7 -5 16 -21 21 -20 32 3 30 23 -1 71 -41 71 -58 0
-9 4 -8 11 2 9 13 10 13 6 0 -2 -8 2 -27 10 -42 8 -17 9 -28 3 -28 -5 0 -10 6
-10 14 0 8 -12 24 -26 35 -15 12 -21 21 -15 21 7 0 9 5 5 11 -5 8 -9 8 -14 -1
-4 -7 -19 -13 -33 -13 -14 -1 -23 -6 -20 -10 3 -5 12 -6 20 -2 32 12 53 -5 54
-43 1 -34 2 -35 10 -12 8 22 8 21 5 -9 -3 -29 -1 -32 9 -17 11 15 13 15 19 1
4 -11 2 -14 -6 -9 -7 5 -9 0 -6 -14 4 -12 2 -22 -3 -22 -5 0 -9 5 -9 10 0 6
-5 10 -10 10 -7 0 -7 -7 0 -20 7 -13 8 -26 1 -37 -7 -14 -9 -12 -10 12 -1 57
-2 65 -13 65 -7 0 -9 -16 -6 -44 l5 -43 -46 2 c-25 2 -37 1 -26 -2 31 -8 37
-19 19 -34 -16 -13 -17 -12 -10 6 4 11 4 16 0 13 -3 -4 -21 0 -38 8 l-31 16
30 -26 c23 -20 26 -25 13 -26 -10 0 -18 4 -18 9 0 5 -9 7 -20 4 -14 -4 -20 -1
-18 8 2 8 -5 14 -17 14 -13 0 -19 6 -17 17 1 9 -2 19 -8 23 -6 4 -7 -1 -3 -12
5 -17 5 -17 -12 -1 -11 10 -19 37 -22 75 -6 75 -13 81 -13 12 0 -70 26 -114
83 -139 45 -21 107 -26 107 -10 0 6 3 10 8 10 4 0 6 -50 4 -111 -2 -78 0 -114
8 -119 8 -5 6 -13 -8 -26 -20 -19 -20 -19 5 -21 19 -1 22 1 12 8 -10 7 -6 9
15 7 22 -2 30 -9 33 -26 1 -13 -1 -21 -5 -18 -4 2 -8 -7 -7 -22 0 -22 4 -26
23 -24 16 2 22 -2 22 -15 0 -15 -2 -16 -10 -3 -8 11 -9 8 -4 -12 7 -34 -3 -37
-16 -5 -8 18 -9 16 -4 -13 4 -27 3 -32 -6 -20 -9 12 -10 11 -5 -6 5 -20 2 -21
-42 -19 l-48 3 44 -15 44 -16 -24 -18 c-17 -13 -26 -14 -31 -6 -6 9 -11 8 -18
-3 -5 -8 -10 -11 -10 -6 0 6 -5 5 -11 -1 -13 -13 -59 6 -59 25 0 6 -8 12 -17
12 -15 0 -16 -2 -3 -10 8 -5 11 -10 5 -10 -5 0 -17 5 -25 10 -11 7 -11 10 -2
10 7 0 10 4 7 10 -3 6 1 7 12 4 16 -5 16 -4 -1 6 -14 10 -20 10 -26 0 -5 -8
-10 -2 -15 19 -3 17 -11 31 -16 31 -5 0 -8 11 -7 25 1 13 4 22 7 20 2 -3 10 3
17 13 8 11 9 19 2 23 -7 4 -7 13 -1 24 12 20 22 21 35 3 8 -10 9 -9 4 4 -12
38 68 84 93 54 8 -10 9 -16 1 -19 -6 -3 -6 -5 1 -3 7 1 14 13 16 25 3 22 1 23
-37 18 -112 -15 -180 -126 -134 -222 17 -37 41 -62 64 -67 8 -2 18 -7 21 -12
4 -5 28 -8 54 -8 151 3 211 178 95 276 l-32 26 0 108 c0 90 3 108 16 110 9 2
14 8 11 13 -4 5 -2 9 4 9 6 0 22 17 36 37 46 68 26 164 -45 211 -20 13 -45 22
-57 19 -12 -2 -24 -1 -25 3 -2 3 -18 3 -37 -1z m-61 -73 c-7 -7 -14 -6 -21 1
-9 9 -7 12 9 10 14 -1 18 -5 12 -11z m165 -195 c3 -5 1 -12 -5 -16 -5 -3 -10
1 -10 9 0 18 6 21 15 7z m-155 -285 c0 -3 -4 -8 -10 -11 -5 -3 -10 -1 -10 4 0
6 5 11 10 11 6 0 10 -2 10 -4z m225 -56 c3 -5 -1 -10 -9 -10 -9 0 -16 -5 -16
-12 0 -6 -2 -9 -5 -6 -7 7 5 38 15 38 5 0 12 -4 15 -10z m-5 -107 c0 -5 -7
-16 -15 -26 -11 -15 -17 -17 -32 -7 -16 10 -16 11 0 6 11 -3 22 2 29 14 14 21
18 25 18 13z"/>
<path d="M2848 4075 c57 -42 69 -59 67 -102 0 -23 3 -40 7 -37 4 3 8 -2 8 -10
0 -19 -11 -21 -27 -5 -9 9 -11 5 -8 -12 1 -13 6 -31 9 -40 8 -19 -18 -44 -35
-33 -7 4 -9 3 -5 -4 3 -6 2 -13 -3 -16 -5 -3 -11 1 -14 8 -9 22 -48 16 -41 -6
3 -10 1 -18 -5 -18 -5 0 -17 -3 -27 -7 -12 -5 -15 -3 -9 6 5 10 2 11 -12 7
-29 -9 -53 3 -46 22 4 15 3 15 -6 2 -9 -13 -11 -13 -11 2 0 9 -6 18 -12 21 -9
3 -5 11 11 26 13 11 19 21 14 21 -6 0 -16 -7 -23 -15 -31 -38 -54 56 -25 98 8
12 15 30 15 40 0 10 9 21 19 24 11 3 22 12 26 20 5 14 3 14 -17 1 -40 -27 -61
-65 -66 -121 -3 -41 0 -57 13 -71 10 -9 16 -19 13 -21 -6 -7 -197 -95 -204
-95 -4 0 -18 10 -30 21 -34 32 -120 36 -173 9 -54 -27 -85 -86 -78 -148 3 -24
10 -48 17 -52 6 -4 11 -11 10 -15 -1 -4 7 -17 18 -30 48 -55 156 -57 216 -4
33 29 34 29 72 13 99 -41 124 -55 125 -72 0 -13 3 -11 9 6 5 12 14 22 20 22 6
0 8 -6 4 -12 -4 -7 3 -3 15 9 12 12 28 20 36 17 8 -4 15 -1 15 4 0 11 -31 9
-53 -4 -6 -4 -4 2 7 14 17 20 21 20 53 7 52 -22 64 -18 18 6 l-40 20 35 -5
c25 -4 31 -3 20 4 -11 7 -5 10 25 11 39 2 39 2 6 6 -40 5 -111 -20 -136 -47
-24 -27 -32 -26 -120 15 -41 19 -78 34 -81 34 -3 -1 -9 2 -12 6 -4 4 0 5 8 3
12 -2 15 11 15 73 l-1 77 93 46 94 46 21 -20 c28 -26 73 -38 120 -32 l37 4 4
-103 3 -104 2 101 2 100 45 47 c43 45 44 49 43 104 0 32 -5 67 -11 78 -14 29
-52 62 -79 70 l-23 7 23 -17z m72 -193 c0 -15 -2 -15 -10 -2 -13 20 -13 33 0
25 6 -3 10 -14 10 -23z m-77 -66 c4 -10 1 -13 -9 -9 -15 6 -19 23 -5 23 5 0
11 -7 14 -14z m-476 -29 c-7 -5 -1 -6 15 -3 21 5 31 1 40 -14 7 -11 19 -20 26
-20 8 0 12 -6 9 -15 -4 -8 -2 -17 2 -20 12 -7 5 -93 -9 -110 -8 -10 -8 -15 0
-20 8 -5 3 -13 -14 -24 -14 -10 -23 -20 -20 -24 3 -3 -3 -3 -15 0 -12 3 -21 1
-21 -6 0 -17 -37 -13 -44 4 -8 23 -36 18 -36 -7 0 -19 -1 -20 -17 -6 -10 9
-28 19 -40 22 -11 4 -27 14 -35 23 -7 9 -8 14 -2 10 7 -4 15 0 18 9 4 12 2 15
-9 11 -19 -8 -26 5 -31 55 -5 52 27 106 81 136 24 13 121 12 102 -1z"/>
<path d="M2310 3776 c42 -17 58 -20 45 -7 -6 5 -26 12 -45 15 l-35 6 35 -14z"/>
<path d="M2405 3727 c0 -28 4 -32 27 -33 15 -1 25 3 22 7 -3 5 -12 9 -20 9 -8
0 -14 9 -14 19 0 11 -3 22 -7 24 -5 3 -8 -9 -8 -26z"/>
<path d="M2200 3705 c-7 -8 -8 -15 -3 -15 5 0 7 -15 5 -32 -3 -18 -2 -31 1
-27 4 3 7 21 9 40 1 18 7 37 13 41 7 5 6 8 -1 8 -6 0 -17 -7 -24 -15z"/>
<path d="M2426 3677 c3 -10 9 -15 12 -12 3 3 0 11 -7 18 -10 9 -11 8 -5 -6z"/>
<path d="M2231 3644 c0 -11 3 -14 6 -6 3 7 2 16 -1 19 -3 4 -6 -2 -5 -13z"/>
<path d="M2403 3584 c0 -19 3 -30 7 -24 4 7 10 11 14 11 9 -1 6 11 -9 31 -10
15 -12 13 -12 -18z"/>
<path d="M2260 3570 c20 -13 33 -13 25 0 -3 6 -14 10 -23 10 -15 0 -15 -2 -2
-10z"/>
<path d="M3870 4055 c7 -8 17 -15 22 -15 6 0 5 7 -2 15 -7 8 -17 15 -22 15 -6
0 -5 -7 2 -15z"/>
<path d="M2703 4022 c-8 -14 -8 -19 1 -19 7 0 13 9 13 19 1 10 1 18 0 18 -1 0
-7 -8 -14 -18z"/>
<path d="M2891 3974 c0 -11 3 -14 6 -6 3 7 2 16 -1 19 -3 4 -6 -2 -5 -13z"/>
<path d="M2665 3910 c-3 -6 1 -7 9 -4 18 7 21 14 7 14 -6 0 -13 -4 -16 -10z"/>
<path d="M3706 3912 c6 -4 17 -18 23 -30 7 -13 15 -21 18 -18 8 8 -26 56 -40
56 -8 0 -9 -3 -1 -8z"/>
<path d="M3746 3907 c3 -10 9 -15 12 -12 3 3 0 11 -7 18 -10 9 -11 8 -5 -6z"/>
<path d="M2734 3829 c-3 -5 9 -9 25 -9 17 0 31 2 31 4 0 8 -51 13 -56 5z"/>
<path d="M2846 3571 c-4 -6 -1 -11 7 -11 17 0 49 -34 40 -43 -3 -4 -1 -7 6 -7
8 0 10 -8 6 -22 -5 -18 -4 -20 4 -8 6 9 11 10 11 3 0 -22 -12 -43 -22 -37 -5
3 -2 -8 7 -25 19 -38 12 -76 -13 -66 -9 3 -13 3 -9 -1 4 -4 -5 -14 -20 -21
l-28 -13 30 5 30 6 -33 -21 c-35 -22 -46 -25 -38 -11 3 5 -1 11 -9 14 -9 4
-12 1 -8 -9 4 -11 -5 -14 -41 -14 -26 0 -46 5 -46 11 0 5 -4 8 -9 5 -5 -3 -15
2 -22 11 -12 15 -12 16 4 10 11 -4 16 -3 12 4 -4 6 -13 8 -21 5 -8 -3 -14 -1
-14 3 0 5 -8 12 -17 15 -10 3 1 -12 24 -34 42 -40 58 -45 128 -40 96 7 157
110 121 204 -18 48 -70 104 -80 87z m84 -143 c0 -16 -3 -19 -11 -11 -6 6 -8
16 -5 22 11 17 16 13 16 -11z"/>
<path d="M3788 3553 c7 -3 16 -2 19 1 4 3 -2 6 -13 5 -11 0 -14 -3 -6 -6z"/>
<path d="M2840 3546 c0 -2 7 -7 16 -10 8 -3 12 -2 9 4 -6 10 -25 14 -25 6z"/>
<path d="M2817 3529 c7 -7 15 -10 18 -7 3 3 -2 9 -12 12 -14 6 -15 5 -6 -5z"/>
<path d="M2621 3433 c0 -16 4 -37 8 -48 6 -14 8 -5 7 27 0 27 -4 48 -8 48 -5
0 -8 -12 -7 -27z"/>
<path d="M3700 3425 c0 -13 38 -46 43 -38 3 5 -3 17 -14 26 -20 17 -29 21 -29
12z"/>
<path d="M3840 3329 c-12 -9 -11 -10 7 -6 12 3 24 0 26 -7 3 -8 8 -8 18 2 8 7
9 12 2 12 -6 0 -17 2 -25 5 -7 3 -20 0 -28 -6z"/>
<path d="M3030 3311 c-136 -34 -154 -229 -26 -290 46 -23 76 -27 76 -11 0 6 5
10 12 10 9 0 9 -3 0 -12 -8 -8 -12 -49 -12 -120 l0 -108 28 -11 c25 -10 26
-12 7 -19 -17 -7 -17 -9 -3 -9 12 -1 16 -7 12 -18 -4 -12 -3 -14 3 -6 5 7 21
10 38 8 l30 -5 -35 30 c-19 17 -40 30 -47 30 -10 0 -13 27 -13 110 l0 110 33
13 c17 8 41 24 51 36 17 19 30 21 119 21 91 0 102 -2 129 -25 107 -90 268 -20
268 117 0 50 -36 114 -74 132 -43 20 -123 20 -156 0 -16 -10 -18 -13 -5 -8 31
11 103 17 130 10 17 -4 23 -11 19 -24 -5 -13 -4 -14 4 -3 10 14 32 7 32 -10 0
-6 -5 -7 -12 -3 -7 5 -9 2 -5 -9 6 -16 -14 -41 -26 -32 -4 3 -4 2 -1 -2 3 -5
18 -9 32 -9 15 -1 32 -2 37 -3 6 0 11 -20 10 -43 0 -27 -4 -42 -11 -41 -7 1
-10 -7 -7 -20 4 -21 4 -22 -9 -2 -14 22 -54 28 -52 7 2 -29 5 -33 17 -27 6 4
4 0 -7 -9 -10 -8 -15 -20 -11 -26 4 -7 -6 -8 -36 -4 -29 5 -40 4 -36 -4 4 -5
17 -8 30 -5 18 3 19 2 6 -6 -18 -11 -62 -3 -53 10 3 5 1 9 -5 9 -5 0 -11 -5
-13 -11 -3 -8 -11 -8 -28 2 -43 25 -50 35 -37 50 10 11 9 11 -5 1 -11 -9 -18
-10 -23 -2 -4 6 -12 10 -18 9 -7 -1 -46 -1 -87 0 l-75 1 0 67 c0 38 -4 75 -8
83 -6 12 3 20 40 33 45 16 51 16 105 -1 55 -17 56 -18 42 -42 -7 -14 -13 -34
-14 -44 0 -24 9 -16 15 13 2 11 11 31 19 43 19 27 20 39 3 33 -7 -3 -37 3 -67
13 -54 19 -55 19 -112 -4 -56 -22 -57 -22 -74 -3 -28 31 -90 44 -144 30z m94
-11 c16 0 17 -2 5 -17 -10 -11 -10 -14 -1 -9 7 4 12 2 12 -7 0 -8 7 -18 16
-21 13 -5 14 -9 4 -21 -7 -8 -19 -15 -28 -15 -8 0 -13 -3 -9 -6 9 -10 59 5 52
16 -3 5 3 8 13 7 11 0 19 -10 20 -25 2 -19 -1 -22 -11 -14 -10 8 -12 2 -9 -27
3 -29 0 -40 -13 -45 -9 -3 -21 -4 -26 0 -5 3 -9 0 -9 -5 0 -6 5 -11 10 -11 6
0 10 -5 10 -11 0 -6 -6 -9 -14 -6 -14 6 -32 -21 -21 -31 3 -3 5 0 5 7 0 7 5 9
10 6 12 -8 42 20 32 29 -3 4 0 11 8 16 23 15 34 12 20 -5 -10 -12 -10 -15 1
-15 8 0 1 -11 -16 -24 -16 -13 -34 -22 -39 -19 -5 4 -6 1 -2 -6 10 -16 -23
-26 -45 -13 -13 8 -19 8 -23 -1 -5 -9 -7 -9 -12 0 -4 10 -11 10 -26 2 -15 -8
-24 -7 -39 7 -10 9 -16 21 -13 25 3 5 -5 9 -16 9 -16 0 -20 4 -16 16 3 8 2 13
-3 10 -13 -9 -21 20 -20 72 1 26 4 37 6 25 2 -13 8 -23 12 -23 10 0 8 31 -4
49 -6 10 -4 12 4 7 8 -5 11 -3 9 6 -8 33 78 82 127 72 11 -2 28 -4 39 -4z m61
-40 c21 -23 4 -27 -19 -4 -18 17 -20 24 -8 24 5 0 17 -9 27 -20z m485 -25 c11
-13 10 -14 -5 -9 -13 5 -16 4 -11 -4 4 -7 2 -12 -3 -12 -13 0 -13 3 -5 24 8
20 9 20 24 1z m-453 -97 c-3 -7 -5 -2 -5 12 0 14 2 19 5 13 2 -7 2 -19 0 -25z
m436 -52 c3 -8 -4 -22 -16 -33 -15 -13 -18 -13 -9 -2 7 9 10 24 6 33 -3 9 -2
16 4 16 5 0 12 -6 15 -14z"/>
<path d="M3125 3230 c-3 -5 1 -10 9 -10 9 0 16 5 16 10 0 6 -4 10 -9 10 -6 0
-13 -4 -16 -10z"/>
<path d="M2980 3113 c0 -5 7 -17 15 -27 15 -20 20 -10 9 18 -6 16 -24 22 -24
9z"/>
<path d="M3015 3040 c-3 -5 -2 -10 4 -10 5 0 13 5 16 10 3 6 2 10 -4 10 -5 0
-13 -4 -16 -10z"/>
<path d="M3500 3191 c0 -5 5 -13 10 -16 6 -3 10 -2 10 4 0 5 -4 13 -10 16 -5
3 -10 2 -10 -4z"/>
<path d="M3391 3128 c-1 -27 20 -51 27 -30 2 7 9 9 14 6 7 -4 8 -2 4 5 -6 9
-11 9 -21 1 -11 -9 -14 -5 -18 17 l-4 28 -2 -27z"/>
<path d="M3010 2779 c-59 -24 -100 -85 -100 -148 0 -58 14 -87 61 -121 33 -24
52 -30 91 -30 30 0 47 4 43 10 -3 5 -27 8 -53 5 -33 -3 -43 -1 -32 6 13 9 13
10 0 8 -43 -4 -81 26 -69 56 13 33 8 42 -5 11 l-13 -29 -6 44 c-5 38 -5 61 2
102 0 5 6 5 11 2 6 -3 10 3 10 15 0 13 4 19 12 14 6 -4 8 -3 4 4 -9 14 8 24
29 16 13 -5 14 -8 3 -15 -8 -5 -9 -9 -2 -9 7 0 22 9 35 19 l24 20 -34 -4 c-26
-3 -32 -2 -23 7 6 6 25 11 42 10 16 0 30 4 30 9 0 12 -28 11 -60 -2z"/>
<path d="M3058 2733 c7 -3 16 -2 19 1 4 3 -2 6 -13 5 -11 0 -14 -3 -6 -6z"/>
<path d="M3180 2701 c0 -5 7 -14 15 -21 16 -14 18 -10 9 14 -6 17 -24 22 -24
7z"/>
<path d="M3165 2660 c3 -5 11 -10 16 -10 6 0 7 5 4 10 -3 6 -11 10 -16 10 -6
0 -7 -4 -4 -10z"/>
<path d="M3180 2640 c-13 -8 -12 -10 3 -10 10 0 17 -8 17 -20 0 -11 -4 -20
-10 -20 -5 0 -10 -7 -10 -15 0 -8 -7 -15 -15 -15 -11 0 -14 7 -9 25 4 15 2 25
-4 25 -6 0 -13 -13 -17 -29 -3 -17 -14 -32 -23 -34 -16 -4 -16 -5 0 -6 12 -1
15 -8 12 -27 -4 -21 -2 -24 13 -15 29 15 54 47 68 87 18 54 8 75 -25 54z m-30
-90 c0 -5 -5 -10 -11 -10 -5 0 -7 5 -4 10 3 6 8 10 11 10 2 0 4 -4 4 -10z m10
-26 c0 -8 -19 -13 -24 -6 -3 5 1 9 9 9 8 0 15 -2 15 -3z"/>
<path d="M3001 2533 c-12 -13 -11 -14 7 -9 11 4 23 2 27 -4 3 -5 10 -10 16
-10 5 0 0 9 -11 20 -24 24 -21 23 -39 3z"/>
</g>
</svg>
